<?xml version="1.0" encoding="UTF-8"?><svg id="Layer_1" xmlns="http://www.w3.org/2000/svg" viewBox="0 0 29.65 12.01"><defs><style>.cls-1{fill:#1b75bb;}.cls-2{fill:#231f20;}</style></defs><path class="cls-1" d="M23.79,3.79c-.31.67-.57,1.65-.8,2.37.52-.42.52-.93,1.28-1.07,1.45-.26,3.68.18,4.84,1.12.94.76.5,2.37-.03,3.26-.09.14-.24.17-.3.27-.35.53-1.2,1.91-1.75,2.16-1.11.5-3.94-.8-5.1-1.12-2.94-.79-7.47-1.07-10.44-.46-.85.18-1.65.6-2.44.84-.27.08-.75.26-.96.03-.11-.12-.1-.33-.17-.46-.52-.93-.73-2.09-1.19-3.06-.07-.14-.28-.11-.33-.36-.11-.59.82-1.1,1.1-1.59-.71.04-1.62.26-2.29.49-.55.19-2.54,1.32-2.87,1.24s-.45-.82-.62-1.1c-.4-.65-1.13-1.54-1.41-2.24-.2-.5-.49-1.48-.06-1.87C.73,1.78,3.28.46,3.94.38c1.09-.13,1.49.28,1.8,1.29,1.45-.24,2.9-.74,4.35-1.03,3.79-.75,8.47-.9,12.26-.13.52.11,2.55.55,2.66,1.05.04.19-.72,1.36-.87,1.66-.12.24-.33.51-.36.57ZM23.93,2.3c.1-.17.38-.52.15-.67-.29-.19-1.84-.49-2.27-.57-4.71-.83-9.6-.36-14.22.79-1.75.43-3.65,1.24-5.41,1.47-.36.05-.75-.04-1.08.01-.16.02-.18-.06-.16.17.02.3.36,1.04.52,1.33.07.13.21.15.25.22.15.29.69,1.61.93,1.63,1.43-.62,2.86-1.26,4.4-1.57,4.59-.94,9.26-.95,13.81,0,.23.05,1.32.43,1.43.4.24-.09.2-.4.29-.56.53-.87.83-1.77,1.37-2.64ZM12.07,5.18c-1.08-.04-2.16.08-3.15.5l-.89.59,1.46-.23,2.58-.86ZM28.77,8.13c-3.16.37-5.66-1.45-8.6-2.04-4.29-.86-6.6-.63-10.7.6-.61.18-1.42.27-2.02.49-.14.05-.18.1-.19.25-.04.57.81,1.85,1.04,2.46.07.2,0,.58.23.65,1.01-.22,1.94-.64,2.97-.83,3.17-.61,7.81-.32,10.94.57,1.19.34,2.37,1,3.65,1.04,1.07.04.92-.36,1.47-1.02.08-.1.25-.05.3-.1.09-.09.81-1.44.86-1.61.04-.15.07-.29.05-.44ZM27.02,7.47h1.97c-.02-.16.05-.39-.02-.52-.04-.08-1.31-1.01-1.5-.73.49.24.86.78.19,1.07-.22.09-.58,0-.63.19Z"/><path class="cls-2" d="M7.1,3.79s.08-.02.14-.03c.13-.02.26,0,.36.05.19.1.5.26.76.23.1-.01.18-.04.23-.09.06-.07.03-.13-.02-.16-.34-.18-.99-.31-1.03-.7-.06-.52.57-1.06.95-1.25.14-.07.23-.09.33-.11s.2,0,.28.05c.14.08.23.2.27.3.06.15-.03.32-.08.41-.09.14-.2.35-.25.45-.03.07-.08.1-.17.04-.07-.05-.12-.11-.13-.19s.03-.24.16-.42c.09-.16.19-.34.13-.37-.18-.08-1.08.6-1.05,1.04.02.25.65.4.84.49.09.04.15.11.16.18.01.09-.03.19-.14.33-.1.13-.31.24-.57.27-.32.04-.77-.07-1.16-.37-.07-.06-.04-.1.02-.13Z"/><path class="cls-2" d="M12.12,3.4c-.08.25-.39.45-.64.48-.28.03-.46-.12-.49-.34-.02-.2.17-.59.38-.87-.11.06-.24.09-.34.11-.24.65-.68,1.23-1.24,1.3-.41.05-.66-.15-.69-.45-.02-.13,0-.29.08-.46.19-.42.51-.68.77-.71.06,0,.11,0,.16.01.14.05.23.11.29.19.08.11.03.26-.04.42-.02.06-.05.12-.06.17-.02.08-.04.11-.15.07-.09-.03-.17-.1-.18-.2,0-.06.04-.19.07-.28.03-.09.07-.17.05-.18-.06-.03-.32.24-.46.58-.07.17-.1.33-.08.44.02.16.11.26.24.25.44-.04.84-.65,1.01-1.15-.1-.03-.14-.08-.14-.15-.02-.2.23-.52.38-.54.09-.01.13.03.14.12s-.01.2-.04.33c.12-.04.23-.11.37-.21.06-.05.13-.07.19-.03.08.06.14.15.16.25,0,.05,0,.11-.06.16-.17.21-.35.49-.4.7-.02.06-.02.12-.01.18.01.1.05.15.12.14.15,0,.37-.28.48-.56.03-.09.1-.1.15-.02.03.04.05.14,0,.26Z"/><path class="cls-2" d="M12.34,3.77c-.27.03-.41-.09-.43-.28,0-.07,0-.16.02-.26.08-.28.31-.76.45-.98.06-.08.11-.1.17-.05.09.07.15.23.06.43-.06.17-.23.49-.29.65-.03.09-.04.18-.03.24s.03.09.08.09c.18-.02.38-.31.48-.58.03-.07.09-.07.13,0,.05.06.06.16,0,.26-.1.26-.39.46-.65.49ZM12.67,1.75c.12-.02.26.11.27.22.01.1-.04.2-.15.21-.14.02-.28-.08-.29-.2-.01-.11.07-.22.17-.23Z"/><path class="cls-2" d="M14.22,2.93c-.08.22-.21.41-.34.53.32-.1.54-.38.64-.62.04-.09.14-.09.16-.01.01.04.03.14-.03.27-.16.33-.52.49-.89.53s-.58-.03-.71-.23c-.16.34-.31.69-.45,1.09-.03.07-.08.1-.13.05-.08-.06-.1-.12-.11-.2,0-.06,0-.14.02-.26.08-.38.67-1.66.91-2.01.07-.09.13-.09.17-.05.04.04.06.09.06.14.1-.08.23-.14.34-.16.27-.03.42.16.44.35.02.16-.03.37-.11.56ZM13.31,2.89c-.11.26-.04.53.07.52.14-.02.31-.25.45-.59.08-.19.11-.39.1-.52,0-.07-.02-.11-.05-.12-.08-.02-.31.18-.46.49l-.12.22Z"/><path class="cls-2" d="M14.54,2.75c.07-.2.2-.52.34-.82-.14,0-.22-.03-.26-.07-.07-.07-.03-.12.07-.13.1,0,.22-.03.32-.05.11-.22.19-.36.28-.5.06-.09.11-.1.17-.03.04.04.06.11.07.15,0,.07,0,.16-.04.27.14,0,.22.05.26.09.05.06.03.11-.08.11-.08,0-.19.02-.29.05-.14.27-.34.68-.46.99-.04.11-.05.21-.04.3.01.11.07.19.14.18.17-.02.37-.29.49-.6.04-.1.14-.12.18-.02.03.08.02.14-.02.23-.05.12-.3.49-.68.53-.23.03-.46-.11-.49-.38-.01-.08,0-.19.05-.33Z"/><path class="cls-2" d="M14.78,8.73c0-.1,0-.22.02-.36l-.38.04c-.22.02-.43.04-.59.04-.15.26-.27.53-.39.75-.07.11-.16.09-.2.02-.03-.07-.07-.11-.07-.2s.02-.21.09-.37c.03-.08.07-.17.13-.29-.1-.07-.15-.15-.16-.18-.04-.1-.02-.14.12-.11.08.01.12.02.2.02.41-.71,1.17-1.76,1.74-2.24.12-.1.2-.09.28.02.05.07.09.13.13.22.03.07.04.12.04.19s-.01.14-.04.22c-.13.39-.28.95-.38,1.52.15.07.2.17.24.28.03.09-.01.11-.11.09l-.19-.03c-.03.27-.06.55-.07.81,0,.1-.07.12-.17.08-.12-.06-.22-.2-.23-.52ZM15.16,6.59c-.35.42-.74.94-1.09,1.47.11-.01.22-.02.32-.04.19-.02.31-.04.45-.05.07-.45.18-.98.31-1.38Z"/><path class="cls-2" d="M16.55,7.34s0,.08,0,.11c.24-.22.5-.4.7-.4.16,0,.31.19.31.4,0,.12-.1.29-.27.6-.18.28-.36.63-.36.84,0,.11.04.18.11.18.19,0,.47-.35.67-.72.05-.1.13-.1.18-.02.04.07.05.23-.03.38-.15.3-.55.59-.88.59-.37,0-.53-.18-.53-.47s.25-.79.47-1.13c.11-.18.2-.32.16-.32-.05,0-.32.15-.62.49-.3.31-.55.85-.77,1.33-.04.09-.11.12-.2.03-.08-.08-.12-.17-.12-.3,0-.08.02-.17.05-.28.1-.3.53-1.06.87-1.57.07-.1.15-.1.21,0,.05.08.07.17.07.25Z"/><path class="cls-2" d="M19.08,7.03c.2,0,.32.1.37.24l.1-.17c.07-.11.16-.11.22-.04.09.11.14.35,0,.63-.14.3-.6.89-.6,1.25,0,.08.02.13.08.13.2,0,.47-.37.65-.72.06-.11.11-.11.16,0,.02.05.05.2-.02.35-.14.3-.49.59-.83.59-.27,0-.43-.14-.48-.34-.16.15-.41.32-.62.32-.32,0-.5-.23-.5-.55,0-.23.1-.54.3-.81.44-.62.89-.88,1.17-.88ZM18.89,8.25c.21-.37.31-.63.31-.78,0-.07-.01-.1-.07-.1-.11,0-.49.34-.77.79-.16.25-.26.54-.26.72,0,.1.02.16.08.16.18,0,.43-.33.7-.79Z"/></svg>